<?xml version="1.0" encoding="UTF-8"?>
<!DOCTYPE svg PUBLIC "-//W3C//DTD SVG 1.1//EN" "http://www.w3.org/Graphics/SVG/1.1/DTD/svg11.dtd">
<svg xmlns="http://www.w3.org/2000/svg" version="1.1" width="500px" height="500px" style="shape-rendering:geometricPrecision; text-rendering:geometricPrecision; image-rendering:optimizeQuality; fill-rule:evenodd; clip-rule:evenodd" xmlns:xlink="http://www.w3.org/1999/xlink">
<g><path style="opacity:0.944" fill="#fbfbfb" d="M 228.5,-0.5 C 242.5,-0.5 256.5,-0.5 270.5,-0.5C 354.177,8.90595 418.677,48.9059 464,119.5C 484.196,153.583 496.029,190.25 499.5,229.5C 499.5,243.5 499.5,257.5 499.5,271.5C 488.044,363.753 441.378,431.586 359.5,475C 331.133,488.339 301.466,496.506 270.5,499.5C 256.5,499.5 242.5,499.5 228.5,499.5C 152.646,491.497 91.813,457.164 46,396.5C 19.5274,358.915 4.02738,317.249 -0.5,271.5C -0.5,256.5 -0.5,241.5 -0.5,226.5C 9.50037,144.635 48.8337,81.1354 117.5,36C 151.841,15.497 188.841,3.3303 228.5,-0.5 Z"/></g>
<g><path style="opacity:1" fill="#080808" d="M 228.5,9.5 C 330.397,5.68546 407.564,47.0188 460,133.5C 498.908,209.938 499.241,286.605 461,363.5C 413.923,444.466 343.256,486.466 249,489.5C 157.057,486.382 87.3906,445.715 40,367.5C 8.41214,307.958 1.41214,245.625 19,180.5C 54.0396,80.7466 123.873,23.7466 228.5,9.5 Z"/></g>
<g><path style="opacity:1" fill="#f9f7f7" d="M 227.5,18.5 C 316.652,13.8349 387.485,47.1682 440,118.5C 483.001,185.123 491.668,256.123 466,331.5C 434.179,408.649 377.679,457.149 296.5,477C 198.965,493.059 120.132,462.226 60,384.5C 18.8428,323.429 7.50948,257.095 26,185.5C 51.6719,107.162 103.505,54.6615 181.5,28C 196.78,23.848 212.113,20.6813 227.5,18.5 Z"/></g>
<g><path style="opacity:1" fill="#ad0a08" d="M 457.5,325.5 C 432.177,316.507 406.844,307.507 381.5,298.5C 400.048,238.038 386.381,186.204 340.5,143C 300.665,110.882 255.998,101.882 206.5,116C 153.834,135.332 122.001,172.498 111,227.5C 107.971,251.678 110.137,275.344 117.5,298.5C 91.6872,307.438 66.0205,316.771 40.5,326.5C 10.6479,231.69 31.6479,150.19 103.5,82C 170.323,27.9238 244.656,14.5905 326.5,42C 398.844,71.0098 445.01,123.177 465,198.5C 474.463,241.59 471.963,283.923 457.5,325.5 Z"/></g>
<g><path style="opacity:1" fill="#fcf4f3" d="M 250.5,51.5 C 250.5,53.5 250.5,55.5 250.5,57.5C 247.615,57.1936 244.948,57.5269 242.5,58.5C 242.833,67.8333 243.167,77.1667 243.5,86.5C 240.5,86.5 237.5,86.5 234.5,86.5C 234.642,77.4757 234.308,68.4757 233.5,59.5C 230.167,59.5 226.833,59.5 223.5,59.5C 223.5,57.1667 223.5,54.8333 223.5,52.5C 232.482,51.7817 241.482,51.4484 250.5,51.5 Z"/></g>
<g><path style="opacity:1" fill="#d88685" d="M 250.5,51.5 C 251.468,53.6074 251.802,55.9407 251.5,58.5C 248.5,58.5 245.5,58.5 242.5,58.5C 244.948,57.5269 247.615,57.1936 250.5,57.5C 250.5,55.5 250.5,53.5 250.5,51.5 Z"/></g>
<g><path style="opacity:1" fill="#fcf5f4" d="M 294.5,56.5 C 301.668,59.1118 309.002,61.1118 316.5,62.5C 316.547,65.573 315.381,67.9063 313,69.5C 309.129,68.2653 305.296,66.932 301.5,65.5C 299.885,67.6215 299.385,69.9549 300,72.5C 303.098,73.6341 305.931,75.1341 308.5,77C 307.852,78.4397 307.519,79.9397 307.5,81.5C 304.26,81.2322 301.094,80.5655 298,79.5C 297.5,79.8333 297,80.1667 296.5,80.5C 295.085,84.4088 294.085,88.4088 293.5,92.5C 290.304,92.1014 287.304,91.1014 284.5,89.5C 287.991,78.5332 291.324,67.5332 294.5,56.5 Z"/></g>
<g><path style="opacity:1" fill="#fcf7f7" d="M 190.5,59.5 C 194.182,59.3347 197.848,59.5014 201.5,60C 204.534,61.1912 206.201,63.3579 206.5,66.5C 203.933,66.8545 201.433,67.5212 199,68.5C 195.707,65.6627 192.874,65.996 190.5,69.5C 190.968,71.1338 191.968,72.3005 193.5,73C 198.614,73.1091 203.614,73.7758 208.5,75C 214.324,82.057 213.324,88.057 205.5,93C 201.239,94.3626 196.905,94.6959 192.5,94C 184.739,89.5505 185.073,86.7172 193.5,85.5C 195.915,87.2161 198.582,87.7161 201.5,87C 204.167,85 204.167,83 201.5,81C 197.167,80.6667 192.833,80.3333 188.5,80C 181.713,76.3104 180.213,71.1437 184,64.5C 185.965,62.4497 188.132,60.783 190.5,59.5 Z"/></g>
<g><path style="opacity:1" fill="#fcf6f6" d="M 333.5,71.5 C 336.727,71.7799 339.393,73.1132 341.5,75.5C 336.749,86.0099 331.249,96.0099 325,105.5C 322.395,104.785 320.228,103.452 318.5,101.5C 324.038,91.7568 329.038,81.7568 333.5,71.5 Z"/></g>
<g><path style="opacity:1" fill="#fcf7f7" d="M 154.5,76.5 C 166.447,77.4457 170.113,83.4457 165.5,94.5C 170.001,96.9159 174.334,99.5825 178.5,102.5C 175.914,104.043 173.414,105.709 171,107.5C 166.97,104.651 162.636,102.317 158,100.5C 157.5,100.833 157,101.167 156.5,101.5C 158.5,104.833 160.5,108.167 162.5,111.5C 160.5,113.327 158.333,114.994 156,116.5C 149.708,106.751 143.542,96.9175 137.5,87C 143.095,83.209 148.761,79.709 154.5,76.5 Z"/></g>
<g><path style="opacity:1" fill="#b11b14" d="M 153.5,84.5 C 158.494,84.329 160.328,86.6624 159,91.5C 157.255,92.9557 155.422,94.289 153.5,95.5C 151.6,93.3805 149.934,91.0472 148.5,88.5C 150.419,87.3875 152.086,86.0542 153.5,84.5 Z"/></g>
<g><path style="opacity:1" fill="#fcf7f6" d="M 358.5,84.5 C 361.401,85.7915 363.734,87.7915 365.5,90.5C 362.26,98.7238 358.927,106.89 355.5,115C 363.412,110.951 371.245,106.451 379,101.5C 381.298,102.961 383.465,104.628 385.5,106.5C 375.453,113.195 365.12,119.529 354.5,125.5C 351.19,123.854 348.523,121.52 346.5,118.5C 350.31,107.068 354.31,95.7349 358.5,84.5 Z"/></g>
<g><path style="opacity:1" fill="#fcf5f5" d="M 119.5,100.5 C 120.239,100.369 120.906,100.536 121.5,101C 128.635,109.136 136.135,116.97 144,124.5C 143.454,127.093 141.954,129.26 139.5,131C 130.694,123.527 122.361,115.194 114.5,106C 116.373,104.296 118.04,102.463 119.5,100.5 Z"/></g>
<g><path style="opacity:1" fill="#121010" d="M 381.5,298.5 C 356.666,356.292 312.666,386.626 249.5,389.5C 186.341,386.636 142.341,356.303 117.5,298.5C 110.137,275.344 107.971,251.678 111,227.5C 122.001,172.498 153.834,135.332 206.5,116C 255.998,101.882 300.665,110.882 340.5,143C 386.381,186.204 400.048,238.038 381.5,298.5 Z"/></g>
<g><path style="opacity:1" fill="#fcfcfc" d="M 230.5,115.5 C 289.087,110.713 334.254,132.713 366,181.5C 390.405,226.783 390.405,272.116 366,317.5C 335.506,364.665 292.006,386.832 235.5,384C 180.229,375.624 142.396,345.458 122,293.5C 105.452,236.54 118.619,187.707 161.5,147C 181.779,130.527 204.779,120.027 230.5,115.5 Z"/></g>
<g><path style="opacity:1" fill="#fcf6f6" d="M 100.5,120.5 C 102.824,121.33 104.824,122.663 106.5,124.5C 103.833,128.167 101.167,131.833 98.5,135.5C 100.167,136.833 101.833,138.167 103.5,139.5C 106.295,137.249 108.628,134.582 110.5,131.5C 112.389,132.604 114.055,133.937 115.5,135.5C 113.694,138.472 111.694,141.305 109.5,144C 113.205,146.845 116.872,149.678 120.5,152.5C 119.557,155.109 117.89,157.109 115.5,158.5C 106.402,152.535 97.5689,146.201 89,139.5C 88.3333,138.5 88.3333,137.5 89,136.5C 93.052,131.288 96.8854,125.955 100.5,120.5 Z"/></g>
<g><path style="opacity:1" fill="#fcf5f5" d="M 398.5,121.5 C 403.056,126.918 407.389,132.585 411.5,138.5C 410.421,140.543 408.754,141.876 406.5,142.5C 404.008,139.837 401.674,137.004 399.5,134C 396.716,133.583 394.716,134.75 393.5,137.5C 395.5,140.167 397.5,142.833 399.5,145.5C 398.421,147.543 396.754,148.876 394.5,149.5C 392.34,147.169 390.34,144.669 388.5,142C 385.692,141.921 383.359,143.088 381.5,145.5C 383.833,148.833 386.167,152.167 388.5,155.5C 387.421,157.543 385.754,158.876 383.5,159.5C 379.667,154.5 375.833,149.5 372,144.5C 371.333,143.5 371.333,142.5 372,141.5C 381.301,135.354 390.134,128.687 398.5,121.5 Z"/></g>
<g><path style="opacity:1" fill="#070707" d="M 253.5,192.5 C 252.206,191.71 251.039,190.71 250,189.5C 249.835,191.678 250.668,193.511 252.5,195C 251.833,195.667 251.167,195.667 250.5,195C 247.856,190.162 247.189,190.328 248.5,195.5C 247.909,196.151 247.243,196.818 246.5,197.5C 246.624,198.107 246.957,198.44 247.5,198.5C 248.263,201.141 248.43,203.808 248,206.5C 247.581,205.328 246.915,204.328 246,203.5C 246.019,205.107 246.185,206.774 246.5,208.5C 245.209,208.263 244.209,208.596 243.5,209.5C 242.5,209.5 241.5,209.5 240.5,209.5C 240.552,205.802 240.886,202.135 241.5,198.5C 242.492,188.852 242.658,179.186 242,169.5C 241.76,167.148 240.927,165.148 239.5,163.5C 241.828,174.419 242.161,185.419 240.5,196.5C 240.016,202.22 239.016,207.886 237.5,213.5C 236.732,214.263 236.232,215.263 236,216.5C 235.502,219.817 235.335,223.15 235.5,226.5C 235.957,228.773 237.29,230.106 239.5,230.5C 239.175,237.687 239.509,244.687 240.5,251.5C 240.5,244.833 240.5,238.167 240.5,231.5C 241.822,231.33 242.989,231.663 244,232.5C 244.739,230.779 245.573,229.113 246.5,227.5C 247.176,228.602 247.842,229.602 248.5,230.5C 248.263,229.209 248.596,228.209 249.5,227.5C 250.458,227.047 251.292,226.381 252,225.5C 252.757,227.315 253.59,228.981 254.5,230.5C 255.424,235.607 256.758,240.607 258.5,245.5C 258.796,247.403 259.463,249.07 260.5,250.5C 260.335,253.518 260.502,256.518 261,259.5C 261.333,258.167 261.667,256.833 262,255.5C 262.708,256.381 263.542,257.047 264.5,257.5C 264.328,258.492 264.662,259.158 265.5,259.5C 269.152,264.151 271.152,269.484 271.5,275.5C 282.935,272.47 291.435,276.136 297,286.5C 300.252,292.836 302.585,299.503 304,306.5C 303.586,321.505 309.42,333.339 321.5,342C 319.041,342.239 316.707,341.739 314.5,340.5C 311.896,338.4 309.396,336.067 307,333.5C 306.333,334.167 306.333,334.833 307,335.5C 309.04,337.37 310.873,339.37 312.5,341.5C 310.297,341.396 308.297,340.73 306.5,339.5C 305.207,337.704 303.707,336.037 302,334.5C 301.7,336.066 302.2,337.399 303.5,338.5C 297.428,334.242 292.928,328.575 290,321.5C 287.263,314.416 285.597,307.083 285,299.5C 283.678,308.515 284.845,317.181 288.5,325.5C 288.154,326.696 287.654,326.696 287,325.5C 283.985,320.475 281.818,315.142 280.5,309.5C 280.313,307.436 279.813,305.436 279,303.5C 278.502,306.482 278.335,309.482 278.5,312.5C 277.71,311.391 277.21,310.058 277,308.5C 276.667,300.5 276.333,292.5 276,284.5C 275.385,282.884 274.385,281.551 273,280.5C 272.271,285.021 270.937,289.354 269,293.5C 265.63,296.535 262.63,299.868 260,303.5C 261.229,309.921 264.563,315.255 270,319.5C 270.781,320.729 271.281,322.062 271.5,323.5C 268.563,331.247 266.896,339.247 266.5,347.5C 264.5,347.5 262.5,347.5 260.5,347.5C 261.546,340.87 261.713,334.203 261,327.5C 259.691,325.024 257.858,323.024 255.5,321.5C 246.912,328.253 237.912,334.419 228.5,340C 225.77,342.13 223.77,344.797 222.5,348C 218.015,348.191 216.848,346.357 219,342.5C 227.035,336.644 234.702,330.311 242,323.5C 242.667,321.833 242.667,320.167 242,318.5C 237.111,313.271 233.445,307.271 231,300.5C 230.333,296.167 230.333,291.833 231,287.5C 232.309,285.253 232.975,282.92 233,280.5C 223.68,273.179 215.014,265.179 207,256.5C 199.258,244.015 193.425,230.682 189.5,216.5C 193.11,217.516 196.777,218.016 200.5,218C 196.702,216.217 192.702,215.384 188.5,215.5C 182.975,213.695 177.308,212.862 171.5,213C 170.667,213.833 169.833,214.667 169,215.5C 168.503,221.068 168.67,226.402 169.5,231.5C 167.287,234.08 165.12,234.08 163,231.5C 163.609,226.161 163.442,220.828 162.5,215.5C 162.878,211.232 164.878,208.065 168.5,206C 174.18,205.555 179.846,205.055 185.5,204.5C 185.469,199.644 185.802,194.811 186.5,190C 186.146,183.637 182.813,179.637 176.5,178C 173.45,177.321 170.45,176.488 167.5,175.5C 166.548,173.955 166.215,172.288 166.5,170.5C 174.469,172.135 182.136,174.969 189.5,179C 191.602,184.037 194.102,188.871 197,193.5C 201.28,188.941 206.447,185.774 212.5,184C 217.823,179.797 219.489,174.797 217.5,169C 209.058,165.131 200.391,161.965 191.5,159.5C 190.456,157.232 190.289,154.899 191,152.5C 201.502,149.842 212.002,147.009 222.5,144C 224.641,142.692 226.641,141.192 228.5,139.5C 229.281,140.729 229.781,142.062 230,143.5C 231.667,142.167 233.333,140.833 235,139.5C 235.497,142.847 234.663,145.847 232.5,148.5C 238.738,150.563 244.072,154.063 248.5,159C 245.949,158.313 243.449,157.146 241,155.5C 242.07,158.212 244.237,160.045 247.5,161C 246.5,161.333 245.5,161.667 244.5,162C 246.351,163.684 248.018,165.517 249.5,167.5C 248.738,167.911 247.738,168.077 246.5,168C 247.667,169.167 248.833,170.333 250,171.5C 250.456,172.744 249.956,173.577 248.5,174C 251.567,176.971 253.4,180.471 254,184.5C 252.667,181.833 250.667,179.833 248,178.5C 248.546,181.093 250.046,183.26 252.5,185C 251.004,185.507 249.837,185.007 249,183.5C 249.372,185.92 250.705,187.92 253,189.5C 253.483,190.448 253.649,191.448 253.5,192.5 Z"/></g>
<g><path style="opacity:1" fill="#eeeeee" d="M 231.5,143.5 C 232.043,143.56 232.376,143.893 232.5,144.5C 231.469,145.7 230.635,147.034 230,148.5C 228.455,149.821 227.289,149.488 226.5,147.5C 228.419,146.388 230.086,145.054 231.5,143.5 Z"/></g>
<g><path style="opacity:1" fill="#767676" d="M 239.5,163.5 C 237.825,161.821 236.992,159.821 237,157.5C 238.663,159.158 239.496,161.158 239.5,163.5 Z"/></g>
<g><path style="opacity:1" fill="#a9a9a9" d="M 225.5,159.5 C 227.057,163.753 225.723,167.087 221.5,169.5C 221.167,169.333 220.833,169.167 220.5,169C 223.773,166.681 225.44,163.514 225.5,159.5 Z"/></g>
<g><path style="opacity:1" fill="#777777" d="M 325.5,164.5 C 325.5,165.167 325.833,165.5 326.5,165.5C 324.095,166.768 321.428,167.435 318.5,167.5C 320.679,166.323 323.013,165.323 325.5,164.5 Z"/></g>
<g><path style="opacity:1" fill="#0a0a0a" d="M 156.5,168.5 C 159.249,168.274 161.916,168.607 164.5,169.5C 166.364,173.95 165.03,176.45 160.5,177C 158.316,174.984 156.316,172.817 154.5,170.5C 155.243,169.818 155.909,169.151 156.5,168.5 Z"/></g>
<g><path style="opacity:1" fill="#cecece" d="M 239.5,163.5 C 240.927,165.148 241.76,167.148 242,169.5C 242.658,179.186 242.492,188.852 241.5,198.5C 240.662,198.158 240.328,197.492 240.5,196.5C 242.161,185.419 241.828,174.419 239.5,163.5 Z"/></g>
<g><path style="opacity:1" fill="#6b6b6b" d="M 285.5,179.5 C 283.574,180.486 281.574,181.486 279.5,182.5C 279.886,180.063 281.053,178.063 283,176.5C 283.617,177.449 283.451,178.282 282.5,179C 283.448,179.483 284.448,179.649 285.5,179.5 Z"/></g>
<g><path style="opacity:1" fill="#9e9e9e" d="M 222.5,173.5 C 223.816,177.913 222.482,181.58 218.5,184.5C 218.167,184.333 217.833,184.167 217.5,184C 220.653,181.195 222.319,177.695 222.5,173.5 Z"/></g>
<g><path style="opacity:1" fill="#b0b0b0" d="M 279.5,182.5 C 281.031,183.925 280.698,184.591 278.5,184.5C 278.328,183.508 278.662,182.842 279.5,182.5 Z"/></g>
<g><path style="opacity:1" fill="#a8a8a8" d="M 213.5,185.5 C 215.975,185.747 215.975,186.413 213.5,187.5C 212.537,187.03 212.537,186.363 213.5,185.5 Z"/></g>
<g><path style="opacity:1" fill="#818181" d="M 269.5,195.5 C 269.5,193.167 269.5,190.833 269.5,188.5C 271.903,188.552 274.236,188.219 276.5,187.5C 277.097,188.139 277.93,188.472 279,188.5C 283.792,187.283 288.625,186.783 293.5,187C 285.643,188.139 277.976,189.806 270.5,192C 273.833,192.333 277.167,192.667 280.5,193C 277.277,194.126 274.111,194.293 271,193.5C 270.722,194.416 270.222,195.082 269.5,195.5 Z"/></g>
<g><path style="opacity:1" fill="#656565" d="M 311.5,190.5 C 312.167,191.167 312.833,191.833 313.5,192.5C 304.517,191.775 295.517,191.608 286.5,192C 294.787,190.762 303.12,190.262 311.5,190.5 Z"/></g>
<g><path style="opacity:1" fill="#d7d7d7" d="M 253.5,192.5 C 254.612,195.342 254.112,198.008 252,200.5C 250.811,198.767 249.644,197.1 248.5,195.5C 247.189,190.328 247.856,190.162 250.5,195C 251.167,195.667 251.833,195.667 252.5,195C 250.668,193.511 249.835,191.678 250,189.5C 251.039,190.71 252.206,191.71 253.5,192.5 Z"/></g>
<g><path style="opacity:1" fill="#0c0c0c" d="M 311.5,190.5 C 303.12,190.262 294.787,190.762 286.5,192C 295.517,191.608 304.517,191.775 313.5,192.5C 318.227,192.779 322.893,193.446 327.5,194.5C 327.67,195.822 327.337,196.989 326.5,198C 324.19,198.497 321.857,198.663 319.5,198.5C 307.432,197.991 295.266,196.991 283,195.5C 282.167,195.667 281.333,195.833 280.5,196C 286.449,197.49 292.449,198.656 298.5,199.5C 306.051,200.675 313.551,202.008 321,203.5C 321.617,204.449 321.451,205.282 320.5,206C 314.843,206.499 309.176,206.666 303.5,206.5C 294.955,204.366 286.288,202.532 277.5,201C 285.432,203.483 293.432,205.649 301.5,207.5C 304.778,208.391 308.111,209.224 311.5,210C 311.957,210.414 312.291,210.914 312.5,211.5C 310.5,211.833 308.5,212.167 306.5,212.5C 300.407,211.844 294.407,211.011 288.5,210C 293.865,212.2 298.865,215.034 303.5,218.5C 303.291,219.086 302.957,219.586 302.5,220C 297.41,220.582 292.743,219.415 288.5,216.5C 287.101,215.11 285.434,214.11 283.5,213.5C 284.5,215.167 285.833,216.5 287.5,217.5C 290.842,219.189 292.342,221.855 292,225.5C 291.275,226.059 290.442,226.392 289.5,226.5C 287.823,225.813 286.156,225.146 284.5,224.5C 279.485,217.82 273.485,212.153 266.5,207.5C 265.535,204.236 265.535,201.236 266.5,198.5C 267.973,199.74 269.64,200.74 271.5,201.5C 271.833,200.833 272.167,200.167 272.5,199.5C 273.768,200.428 275.101,200.595 276.5,200C 274.608,199.027 272.608,198.36 270.5,198C 269.748,197.329 269.414,196.496 269.5,195.5C 270.222,195.082 270.722,194.416 271,193.5C 274.111,194.293 277.277,194.126 280.5,193C 277.167,192.667 273.833,192.333 270.5,192C 277.976,189.806 285.643,188.139 293.5,187C 288.625,186.783 283.792,187.283 279,188.5C 277.93,188.472 277.097,188.139 276.5,187.5C 277.906,187.027 278.573,186.027 278.5,184.5C 280.698,184.591 281.031,183.925 279.5,182.5C 281.574,181.486 283.574,180.486 285.5,179.5C 296.665,175.742 307.665,171.742 318.5,167.5C 321.428,167.435 324.095,166.768 326.5,165.5C 332.4,164.043 338.4,163.377 344.5,163.5C 344.703,165.39 344.037,166.89 342.5,168C 332.794,170.51 323.127,173.177 313.5,176C 319.806,175.649 326.139,175.149 332.5,174.5C 335.924,174.482 339.257,174.982 342.5,176C 343.833,177 343.833,178 342.5,179C 332.112,180.294 321.779,181.96 311.5,184C 318.167,184.333 324.833,184.667 331.5,185C 333.481,185.605 333.815,186.605 332.5,188C 325.518,189.062 318.518,189.896 311.5,190.5 Z"/></g>
<g><path style="opacity:1" fill="#6a6a6a" d="M 297.5,178.5 C 301.893,178.457 302.226,178.957 298.5,180C 292.865,181.529 287.198,182.529 281.5,183C 286.975,181.548 292.308,180.048 297.5,178.5 Z"/></g>
<g><path style="opacity:1" fill="#717171" d="M 319.5,198.5 C 312.313,198.175 305.313,198.509 298.5,199.5C 292.449,198.656 286.449,197.49 280.5,196C 281.333,195.833 282.167,195.667 283,195.5C 295.266,196.991 307.432,197.991 319.5,198.5 Z"/></g>
<g><path style="opacity:1" fill="#a4a4a4" d="M 196.5,196.5 C 197.525,196.897 197.692,197.563 197,198.5C 193.954,201.279 190.454,202.779 186.5,203C 190.411,201.556 193.744,199.389 196.5,196.5 Z"/></g>
<g><path style="opacity:1" fill="#d9d9d9" d="M 246.5,208.5 C 246.185,206.774 246.019,205.107 246,203.5C 246.915,204.328 247.581,205.328 248,206.5C 248.43,203.808 248.263,201.141 247.5,198.5C 247.81,197.262 248.31,197.262 249,198.5C 252.573,202.947 251.739,206.281 246.5,208.5 Z"/></g>
<g><path style="opacity:1" fill="#717171" d="M 269.5,195.5 C 269.414,196.496 269.748,197.329 270.5,198C 272.608,198.36 274.608,199.027 276.5,200C 275.101,200.595 273.768,200.428 272.5,199.5C 272.167,200.167 271.833,200.833 271.5,201.5C 269.64,200.74 267.973,199.74 266.5,198.5C 267.167,197.167 268.167,196.167 269.5,195.5 Z"/></g>
<g><path style="opacity:1" fill="#818181" d="M 266.5,198.5 C 265.535,201.236 265.535,204.236 266.5,207.5C 265.167,207.833 263.833,208.167 262.5,208.5C 264.675,205.769 265.008,202.769 263.5,199.5C 264.325,198.614 265.325,198.281 266.5,198.5 Z"/></g>
<g><path style="opacity:1" fill="#a5a5a5" d="M 303.5,206.5 C 302.508,206.328 301.842,206.662 301.5,207.5C 293.432,205.649 285.432,203.483 277.5,201C 286.288,202.532 294.955,204.366 303.5,206.5 Z"/></g>
<g><path style="opacity:1" fill="#676767" d="M 276.5,204.5 C 276.56,203.957 276.893,203.624 277.5,203.5C 280.5,205 283.5,206.5 286.5,208C 282.932,207.726 279.599,206.56 276.5,204.5 Z"/></g>
<g><path style="opacity:1" fill="#828282" d="M 240.5,196.5 C 240.328,197.492 240.662,198.158 241.5,198.5C 240.886,202.135 240.552,205.802 240.5,209.5C 241.5,209.5 242.5,209.5 243.5,209.5C 241.272,210.377 239.272,211.71 237.5,213.5C 239.016,207.886 240.016,202.22 240.5,196.5 Z"/></g>
<g><path style="opacity:1" fill="#141414" d="M 325.5,164.5 C 323.013,165.323 320.679,166.323 318.5,167.5C 307.665,171.742 296.665,175.742 285.5,179.5C 284.448,179.649 283.448,179.483 282.5,179C 283.451,178.282 283.617,177.449 283,176.5C 281.053,178.063 279.886,180.063 279.5,182.5C 278.662,182.842 278.328,183.508 278.5,184.5C 278.573,186.027 277.906,187.027 276.5,187.5C 274.236,188.219 271.903,188.552 269.5,188.5C 269.5,190.833 269.5,193.167 269.5,195.5C 268.167,196.167 267.167,197.167 266.5,198.5C 265.325,198.281 264.325,198.614 263.5,199.5C 265.008,202.769 264.675,205.769 262.5,208.5C 263.833,208.167 265.167,207.833 266.5,207.5C 273.485,212.153 279.485,217.82 284.5,224.5C 285.793,226.296 287.293,227.963 289,229.5C 289.495,231.473 289.662,233.473 289.5,235.5C 287.533,235.739 285.699,235.406 284,234.5C 285.283,237.242 285.616,240.242 285,243.5C 283.575,244.212 282.075,244.379 280.5,244C 282.225,250.867 280.392,252.034 275,247.5C 275.422,250.098 275.422,252.764 275,255.5C 272.006,256.89 270.006,255.89 269,252.5C 269.108,255.637 267.941,257.97 265.5,259.5C 264.662,259.158 264.328,258.492 264.5,257.5C 263.718,254.179 262.385,251.846 260.5,250.5C 259.463,249.07 258.796,247.403 258.5,245.5C 259.097,245.265 259.43,244.765 259.5,244C 258.099,239.286 256.432,234.786 254.5,230.5C 253.59,228.981 252.757,227.315 252,225.5C 251.292,226.381 250.458,227.047 249.5,227.5C 248.122,226.766 246.622,226.099 245,225.5C 245.209,229.459 243.375,231.126 239.5,230.5C 237.29,230.106 235.957,228.773 235.5,226.5C 236.449,222.343 237.116,218.01 237.5,213.5C 239.272,211.71 241.272,210.377 243.5,209.5C 244.209,208.596 245.209,208.263 246.5,208.5C 251.739,206.281 252.573,202.947 249,198.5C 248.31,197.262 247.81,197.262 247.5,198.5C 246.957,198.44 246.624,198.107 246.5,197.5C 247.243,196.818 247.909,196.151 248.5,195.5C 249.644,197.1 250.811,198.767 252,200.5C 254.112,198.008 254.612,195.342 253.5,192.5C 254.397,193.598 255.23,193.598 256,192.5C 262.117,180.191 271.951,172.857 285.5,170.5C 286.772,170.57 287.938,170.903 289,171.5C 301.732,165.364 314.899,160.198 328.5,156C 332.5,155.333 336.5,155.333 340.5,156C 335.797,159.352 330.797,162.185 325.5,164.5 Z"/></g>
<g><path style="opacity:1" fill="#9b9b9b" d="M 262.5,208.5 C 264.916,211.97 264.25,212.303 260.5,209.5C 260.167,210.167 259.833,210.833 259.5,211.5C 261.025,213.8 262.191,216.133 263,218.5C 261.899,216.606 260.566,215.939 259,216.5C 258.503,213.854 258.336,211.187 258.5,208.5C 259.833,208.5 261.167,208.5 262.5,208.5 Z"/></g>
<g><path style="opacity:1" fill="#6b6b6b" d="M 283.5,213.5 C 281.456,212.969 279.789,211.802 278.5,210C 280.772,210.077 282.438,211.243 283.5,213.5 Z"/></g>
<g><path style="opacity:1" fill="#737373" d="M 283.5,213.5 C 285.434,214.11 287.101,215.11 288.5,216.5C 287.833,216.5 287.5,216.833 287.5,217.5C 285.833,216.5 284.5,215.167 283.5,213.5 Z"/></g>
<g><path style="opacity:1" fill="#7b7b7b" d="M 271.5,219.5 C 268.927,218.121 267.427,216.121 267,213.5C 269.127,215.114 270.627,217.114 271.5,219.5 Z"/></g>
<g><path style="opacity:1" fill="#969696" d="M 188.5,215.5 C 192.702,215.384 196.702,216.217 200.5,218C 196.777,218.016 193.11,217.516 189.5,216.5C 188.833,216.5 188.5,216.167 188.5,215.5 Z"/></g>
<g><path style="opacity:1" fill="#a3a3a3" d="M 256.5,223.5 C 255.282,222.269 253.949,221.102 252.5,220C 253.759,219.018 255.092,218.685 256.5,219C 255.587,220.414 255.587,221.914 256.5,223.5 Z"/></g>
<g><path style="opacity:1" fill="#7f7f7f" d="M 237.5,213.5 C 237.116,218.01 236.449,222.343 235.5,226.5C 235.335,223.15 235.502,219.817 236,216.5C 236.232,215.263 236.732,214.263 237.5,213.5 Z"/></g>
<g><path style="opacity:1" fill="#828282" d="M 271.5,219.5 C 273.757,220.562 274.923,222.228 275,224.5C 273.198,223.211 272.031,221.544 271.5,219.5 Z"/></g>
<g><path style="opacity:1" fill="#797979" d="M 256.5,223.5 C 258.708,224.918 259.542,226.918 259,229.5C 257.878,227.593 257.045,225.593 256.5,223.5 Z"/></g>
<g><path style="opacity:1" fill="#121212" d="M 170.5,232.5 C 175.502,234.019 177.336,237.352 176,242.5C 175.612,243.428 174.945,244.095 174,244.5C 169.985,242.49 167.485,239.323 166.5,235C 168.066,234.392 169.4,233.558 170.5,232.5 Z"/></g>
<g><path style="opacity:1" fill="#777777" d="M 199.5,230.5 C 201.117,232.121 202.284,234.121 203,236.5C 203.667,237.5 203.667,238.5 203,239.5C 201.336,236.673 200.17,233.673 199.5,230.5 Z"/></g>
<g><path style="opacity:1" fill="#717171" d="M 248.5,230.5 C 250.421,233.856 251.254,237.523 251,241.5C 249.69,237.93 248.857,234.263 248.5,230.5 Z"/></g>
<g><path style="opacity:1" fill="#6d6d6d" d="M 254.5,230.5 C 256.432,234.786 258.099,239.286 259.5,244C 259.43,244.765 259.097,245.265 258.5,245.5C 256.758,240.607 255.424,235.607 254.5,230.5 Z"/></g>
<g><path style="opacity:1" fill="#858585" d="M 265.5,230.5 C 268.082,232.997 269.582,235.997 270,239.5C 267.962,236.757 266.462,233.757 265.5,230.5 Z"/></g>
<g><path style="opacity:1" fill="#fefcfc" d="M 448.5,235.5 C 449.693,235.97 450.36,236.97 450.5,238.5C 450.167,239.5 449.833,240.5 449.5,241.5C 448.534,239.604 448.201,237.604 448.5,235.5 Z"/></g>
<g><path style="opacity:1" fill="#faeded" d="M 70.5,237.5 C 75.1667,237.5 79.8333,237.5 84.5,237.5C 84.5,238.5 84.5,239.5 84.5,240.5C 80.8333,240.5 77.1667,240.5 73.5,240.5C 72.8402,245.14 74.5069,246.473 78.5,244.5C 84.3984,245.28 86.5651,248.613 85,254.5C 81.9867,259.535 77.8201,260.702 72.5,258C 70.9632,256.89 70.2965,255.39 70.5,253.5C 73.0903,254.252 75.5903,255.252 78,256.5C 80.8528,256.166 82.3528,254.499 82.5,251.5C 82.1009,248.935 80.6009,247.601 78,247.5C 75.5903,248.748 73.0903,249.748 70.5,250.5C 70.5,246.167 70.5,241.833 70.5,237.5 Z"/></g>
<g><path style="opacity:1" fill="#717171" d="M 245.5,252.5 C 245.894,251.033 246.227,249.533 246.5,248C 245.523,243.507 245.023,239.007 245,234.5C 246.747,242.166 248.08,249.833 249,257.5C 248.451,255.24 247.284,253.574 245.5,252.5 Z"/></g>
<g><path style="opacity:1" fill="#faefef" d="M 424.5,258.5 C 419.381,259.103 414.715,258.436 410.5,256.5C 412.64,253.835 415.14,251.502 418,249.5C 420.19,247.217 420.857,244.551 420,241.5C 419.261,240.426 418.261,239.759 417,239.5C 415.005,241.23 412.838,242.563 410.5,243.5C 410.911,237.948 413.911,235.782 419.5,237C 420.931,237.465 422.097,238.299 423,239.5C 423.667,242.167 423.667,244.833 423,247.5C 420.872,250.63 418.372,253.463 415.5,256C 418.992,255.93 421.992,256.763 424.5,258.5 Z"/></g>
<g><path style="opacity:1" fill="#f9ebeb" d="M 433.5,236.5 C 439.726,235.909 442.893,238.576 443,244.5C 439.667,246.5 439.667,248.5 443,250.5C 443.659,258.115 440.159,260.949 432.5,259C 430.393,257.736 429.393,255.903 429.5,253.5C 431.359,253.461 432.692,254.294 433.5,256C 437.998,257.477 440.165,255.977 440,251.5C 438.211,249.771 436.044,249.104 433.5,249.5C 433.5,248.5 433.5,247.5 433.5,246.5C 438.327,247.152 440.16,245.152 439,240.5C 438.275,239.941 437.442,239.608 436.5,239.5C 434.361,240.977 432.028,241.977 429.5,242.5C 429.657,239.682 430.991,237.682 433.5,236.5 Z"/></g>
<g><path style="opacity:1" fill="#f8e8e8" d="M 64.5,238.5 C 62.1433,240.098 59.4766,241.098 56.5,241.5C 56.5,243.5 56.5,245.5 56.5,247.5C 58.8333,247.5 61.1667,247.5 63.5,247.5C 63.5,248.5 63.5,249.5 63.5,250.5C 61.1667,250.5 58.8333,250.5 56.5,250.5C 56.5,253.5 56.5,256.5 56.5,259.5C 55.1667,259.5 53.8333,259.5 52.5,259.5C 52.5,252.5 52.5,245.5 52.5,238.5C 56.5,238.5 60.5,238.5 64.5,238.5 Z"/></g>
<g><path style="opacity:1" fill="#7b7b7b" d="M 249.5,227.5 C 248.596,228.209 248.263,229.209 248.5,230.5C 247.842,229.602 247.176,228.602 246.5,227.5C 245.573,229.113 244.739,230.779 244,232.5C 242.989,231.663 241.822,231.33 240.5,231.5C 240.5,238.167 240.5,244.833 240.5,251.5C 239.509,244.687 239.175,237.687 239.5,230.5C 243.375,231.126 245.209,229.459 245,225.5C 246.622,226.099 248.122,226.766 249.5,227.5 Z"/></g>
<g><path style="opacity:1" fill="#e1a4a4" d="M 64.5,238.5 C 65.404,239.209 65.7373,240.209 65.5,241.5C 62.5,241.5 59.5,241.5 56.5,241.5C 59.4766,241.098 62.1433,240.098 64.5,238.5 Z"/></g>
<g><path style="opacity:1" fill="#b8b8b8" d="M 230.5,227.5 C 233.038,227.118 234.871,228.451 236,231.5C 236.332,237.518 235.999,243.518 235,249.5C 234.802,243.821 234.802,238.155 235,232.5C 234.004,230.34 232.504,228.673 230.5,227.5 Z"/></g>
<g><path style="opacity:1" fill="#cacaca" d="M 207.5,246.5 C 205.584,245.335 204.751,243.668 205,241.5C 206.372,242.91 207.205,244.577 207.5,246.5 Z"/></g>
<g><path style="opacity:1" fill="#6c6c6c" d="M 264.5,241.5 C 266.431,243.794 267.264,246.461 267,249.5C 265.659,246.978 264.826,244.311 264.5,241.5 Z"/></g>
<g><path style="opacity:1" fill="#b4b4b4" d="M 264.5,257.5 C 263.542,257.047 262.708,256.381 262,255.5C 261.667,256.833 261.333,258.167 261,259.5C 260.502,256.518 260.335,253.518 260.5,250.5C 262.385,251.846 263.718,254.179 264.5,257.5 Z"/></g>
<g><path style="opacity:1" fill="#c4c4c4" d="M 207.5,246.5 C 209.984,248.8 211.984,251.467 213.5,254.5C 210.529,252.557 208.529,249.891 207.5,246.5 Z"/></g>
<g><path style="opacity:1" fill="#626262" d="M 240.5,251.5 C 241.935,253.401 243.602,253.734 245.5,252.5C 244.796,254.344 243.463,254.844 241.5,254C 240.748,253.329 240.414,252.496 240.5,251.5 Z"/></g>
<g><path style="opacity:1" fill="#9d9d9d" d="M 213.5,254.5 C 215.63,256.127 217.63,257.96 219.5,260C 216.474,259.481 214.474,257.648 213.5,254.5 Z"/></g>
<g><path style="opacity:1" fill="#737373" d="M 251.5,242.5 C 253.568,247.67 255.068,253.004 256,258.5C 253.541,253.577 252.041,248.244 251.5,242.5 Z"/></g>
<g><path style="opacity:1" fill="#e5afaf" d="M 410.5,256.5 C 414.715,258.436 419.381,259.103 424.5,258.5C 419.695,259.487 414.695,259.821 409.5,259.5C 409.263,258.209 409.596,257.209 410.5,256.5 Z"/></g>
<g><path style="opacity:1" fill="#949494" d="M 291.5,284.5 C 288.996,282.856 286.329,281.356 283.5,280C 287.145,279.658 289.811,281.158 291.5,284.5 Z"/></g>
<g><path style="opacity:1" fill="#afafaf" d="M 291.5,284.5 C 293.262,285.262 294.262,286.596 294.5,288.5C 292.738,287.738 291.738,286.404 291.5,284.5 Z"/></g>
<g><path style="opacity:1" fill="#b5b5b5" d="M 266.5,276.5 C 268.294,281.831 267.461,286.831 264,291.5C 265.885,286.793 266.718,281.793 266.5,276.5 Z"/></g>
<g><path style="opacity:1" fill="#898989" d="M 235.5,286.5 C 237.088,288.527 237.588,290.861 237,293.5C 236.023,291.26 235.523,288.927 235.5,286.5 Z"/></g>
<g><path style="opacity:1" fill="#010101" d="M 117.5,298.5 C 142.341,356.303 186.341,386.636 249.5,389.5C 312.666,386.626 356.666,356.292 381.5,298.5C 406.844,307.507 432.177,316.507 457.5,325.5C 430.18,395.652 380.513,441.818 308.5,464C 215.92,485.471 138.42,460.638 76,389.5C 61.0734,370.321 49.2401,349.321 40.5,326.5C 66.0205,316.771 91.6872,307.438 117.5,298.5 Z"/></g>
<g><path style="opacity:1" fill="#b3b3b3" d="M 242.5,305.5 C 239.866,303.101 238.699,300.101 239,296.5C 240.664,299.327 241.83,302.327 242.5,305.5 Z"/></g>
<g><path style="opacity:1" fill="#bdbdbd" d="M 290.5,298.5 C 291.927,304.662 292.76,310.995 293,317.5C 290.999,311.327 290.166,304.994 290.5,298.5 Z"/></g>
<g><path style="opacity:1" fill="#cecece" d="M 294.5,288.5 C 296.41,289.975 297.576,291.975 298,294.5C 299.277,298.097 299.61,301.764 299,305.5C 298.006,299.686 296.506,294.02 294.5,288.5 Z"/></g>
<g><path style="opacity:1" fill="#c9c9c9" d="M 242.5,305.5 C 244.25,306.659 245.25,308.326 245.5,310.5C 243.75,309.341 242.75,307.674 242.5,305.5 Z"/></g>
<g><path style="opacity:1" fill="#b7b7b7" d="M 280.5,309.5 C 279.691,311.292 279.191,313.292 279,315.5C 278.517,314.552 278.351,313.552 278.5,312.5C 278.335,309.482 278.502,306.482 279,303.5C 279.813,305.436 280.313,307.436 280.5,309.5 Z"/></g>
<g><path style="opacity:1" fill="#8e8e8e" d="M 245.5,310.5 C 247.757,311.562 248.923,313.228 249,315.5C 247.198,314.211 246.031,312.544 245.5,310.5 Z"/></g>
<g><path style="opacity:1" fill="#555555" d="M 300.5,315.5 C 302.088,317.527 302.588,319.861 302,322.5C 301.023,320.26 300.523,317.927 300.5,315.5 Z"/></g>
<g><path style="opacity:1" fill="#a1a1a1" d="M 264.5,317.5 C 267.276,319.052 268.443,321.386 268,324.5C 266.807,322.114 265.64,319.78 264.5,317.5 Z"/></g>
<g><path style="opacity:1" fill="#959595" d="M 306.5,339.5 C 305.221,340.715 304.221,340.382 303.5,338.5C 302.2,337.399 301.7,336.066 302,334.5C 303.707,336.037 305.207,337.704 306.5,339.5 Z"/></g>
<g><path style="opacity:1" fill="#a9a9a9" d="M 314.5,340.5 C 313.262,340.81 313.262,341.31 314.5,342C 313.563,342.692 312.897,342.525 312.5,341.5C 310.873,339.37 309.04,337.37 307,335.5C 306.333,334.833 306.333,334.167 307,333.5C 309.396,336.067 311.896,338.4 314.5,340.5 Z"/></g>
<g><path style="opacity:1" fill="#090909" d="M 214.5,347.5 C 215.93,347.421 217.264,347.754 218.5,348.5C 224.246,358.925 221.413,362.258 210,358.5C 208.776,353.626 210.276,349.959 214.5,347.5 Z"/></g>
<g><path style="opacity:1" fill="#151515" d="M 259.5,348.5 C 261.833,348.5 264.167,348.5 266.5,348.5C 266.277,350.342 265.943,352.175 265.5,354C 265.439,355.711 266.106,357.044 267.5,358C 255.377,362.93 252.71,359.763 259.5,348.5 Z"/></g>
<g><path style="opacity:1" fill="#e9e9e9" d="M 117.5,357.5 C 121.282,360.452 124.615,363.952 127.5,368C 126.725,369.23 125.725,369.563 124.5,369C 122.333,366.833 120.167,364.667 118,362.5C 116.315,364.017 114.815,365.684 113.5,367.5C 114.982,369.483 116.649,371.316 118.5,373C 117.407,374.365 116.074,374.699 114.5,374C 113.274,372.365 111.941,370.865 110.5,369.5C 107.833,371.5 105.167,373.5 102.5,375.5C 101.354,374.855 100.354,374.022 99.5,373C 105.397,367.594 111.397,362.428 117.5,357.5 Z"/></g>
<g><path style="opacity:1" fill="#eaeaea" d="M 378.5,357.5 C 380.255,358.072 381.922,358.906 383.5,360C 388.041,364.709 392.708,369.209 397.5,373.5C 396.855,374.646 396.022,375.646 395,376.5C 391.333,373.167 387.667,369.833 384,366.5C 385.865,371.761 387.531,377.095 389,382.5C 388.275,383.059 387.442,383.392 386.5,383.5C 381.421,381.859 376.421,380.359 371.5,379C 374.717,382.517 378.217,385.684 382,388.5C 382.345,390.201 381.678,391.534 380,392.5C 373.836,387.169 368.002,381.502 362.5,375.5C 363.167,374.167 364.167,373.167 365.5,372.5C 371.582,375.475 377.915,377.308 384.5,378C 381.934,372.142 379.267,366.308 376.5,360.5C 377.193,359.482 377.859,358.482 378.5,357.5 Z"/></g>
<g><path style="opacity:1" fill="#e5e5e5" d="M 134.5,374.5 C 135.552,374.351 136.552,374.517 137.5,375C 140.535,378.37 143.868,381.37 147.5,384C 146.667,384.833 145.833,385.667 145,386.5C 142.075,384.286 139.241,381.953 136.5,379.5C 135.019,380.48 133.685,381.647 132.5,383C 141.76,387.294 142.76,392.961 135.5,400C 128.014,402.547 123.347,399.88 121.5,392C 121.625,390.373 122.125,388.873 123,387.5C 124.595,390.8 126.428,393.966 128.5,397C 134,397.5 136.5,395 136,389.5C 133.834,387.879 131.334,387.045 128.5,387C 127.643,386.311 126.977,385.478 126.5,384.5C 129.57,381.436 132.237,378.103 134.5,374.5 Z"/></g>
<g><path style="opacity:1" fill="#ebebeb" d="M 347.5,386.5 C 360.374,385.206 365.874,390.872 364,403.5C 358.376,412.349 351.376,413.683 343,407.5C 337.419,398.984 338.919,391.984 347.5,386.5 Z"/></g>
<g><path style="opacity:1" fill="#090909" d="M 349.5,389.5 C 358.453,389.963 361.953,394.63 360,403.5C 354.514,409.08 349.514,408.747 345,402.5C 342.528,396.779 344.028,392.446 349.5,389.5 Z"/></g>
<g><path style="opacity:1" fill="#eeeeee" d="M 155.5,392.5 C 159.957,393.787 163.79,396.12 167,399.5C 168.931,406.999 166.098,410.666 158.5,410.5C 158.665,414.182 158.499,417.848 158,421.5C 157,420.833 156,420.167 155,419.5C 154.827,415.459 154.327,411.459 153.5,407.5C 152.914,407.291 152.414,406.957 152,406.5C 150.374,408.917 148.874,411.417 147.5,414C 145.924,414.388 144.591,413.888 143.5,412.5C 147.511,405.806 151.511,399.139 155.5,392.5 Z"/></g>
<g><path style="opacity:1" fill="#0a0a0a" d="M 157.5,397.5 C 162.823,398.302 164.489,401.135 162.5,406C 154.199,406.882 152.533,404.049 157.5,397.5 Z"/></g>
<g><path style="opacity:1" fill="#e5e5e5" d="M 318.5,403.5 C 321.187,403.336 323.854,403.503 326.5,404C 330.378,405.572 330.378,407.072 326.5,408.5C 316.699,405.8 312.866,409.466 315,419.5C 317.541,424.069 321.375,425.569 326.5,424C 328.919,421.469 331.252,418.969 333.5,416.5C 334.477,421.083 332.81,424.583 328.5,427C 315.897,430.398 309.731,425.565 310,412.5C 311.688,408.315 314.521,405.315 318.5,403.5 Z"/></g>
<g><path style="opacity:1" fill="#ebebeb" d="M 179.5,405.5 C 181.346,405.222 182.68,405.889 183.5,407.5C 181.302,412.761 179.302,418.095 177.5,423.5C 178.868,428.078 181.868,429.578 186.5,428C 189.074,422.107 191.74,416.274 194.5,410.5C 195.902,410.865 196.902,411.699 197.5,413C 195.471,418.224 193.305,423.391 191,428.5C 184.677,434.171 179.01,433.505 174,426.5C 173.333,424.5 173.333,422.5 174,420.5C 175.939,415.515 177.772,410.515 179.5,405.5 Z"/></g>
<g><path style="opacity:1" fill="#eaeaea" d="M 212.5,416.5 C 219.747,415.57 225.081,418.236 228.5,424.5C 226.833,425.833 225.167,425.833 223.5,424.5C 218.751,419.191 213.918,419.191 209,424.5C 206.999,434.164 210.833,438.33 220.5,437C 221.687,435.981 222.687,434.814 223.5,433.5C 221.028,432.104 218.362,431.27 215.5,431C 214.216,429.703 214.383,428.536 216,427.5C 220.066,428.581 224.233,429.248 228.5,429.5C 225.864,440.78 219.198,443.946 208.5,439C 204.758,434.483 203.591,429.316 205,423.5C 206.742,420.254 209.242,417.921 212.5,416.5 Z"/></g>
<g><path style="opacity:1" fill="#eaeaea" d="M 280.5,416.5 C 281.833,416.5 283.167,416.5 284.5,416.5C 283.143,422.072 281.477,427.572 279.5,433C 280.348,435.77 280.681,438.603 280.5,441.5C 279.167,441.5 277.833,441.5 276.5,441.5C 276.649,438.393 276.149,435.393 275,432.5C 271.833,428.167 268.667,423.833 265.5,419.5C 266.723,418.386 268.056,418.219 269.5,419C 271.88,422.258 274.38,425.424 277,428.5C 278.171,424.482 279.337,420.482 280.5,416.5 Z"/></g>
<g><path style="opacity:1" fill="#f1f1f1" d="M 251.5,420.5 C 256.254,421.618 257.754,424.618 256,429.5C 252.943,431.138 252.943,432.471 256,433.5C 258.481,438.191 257.315,441.524 252.5,443.5C 248.5,443.5 244.5,443.5 240.5,443.5C 240.5,435.833 240.5,428.167 240.5,420.5C 244.167,420.5 247.833,420.5 251.5,420.5 Z"/></g>
<g><path style="opacity:1" fill="#020202" d="M 244.5,423.5 C 246.857,423.337 249.19,423.503 251.5,424C 252.98,426.235 252.647,428.068 250.5,429.5C 248.5,429.5 246.5,429.5 244.5,429.5C 244.5,427.5 244.5,425.5 244.5,423.5 Z"/></g>
<g><path style="opacity:1" fill="#565656" d="M 244.5,423.5 C 244.5,425.5 244.5,427.5 244.5,429.5C 246.5,429.5 248.5,429.5 250.5,429.5C 248.393,430.468 246.059,430.802 243.5,430.5C 243.198,427.941 243.532,425.607 244.5,423.5 Z"/></g>
<g><path style="opacity:1" fill="#e6e6e6" d="M 300.5,431.5 C 306.005,434.171 305.671,435.838 299.5,436.5C 299.366,434.708 299.699,433.042 300.5,431.5 Z"/></g>
<g><path style="opacity:1" fill="#0d0d0d" d="M 243.5,433.5 C 246.187,433.336 248.854,433.503 251.5,434C 253.602,435.733 253.935,437.733 252.5,440C 249.518,440.498 246.518,440.665 243.5,440.5C 243.5,438.167 243.5,435.833 243.5,433.5 Z"/></g>
<g><path style="opacity:1" fill="#c1c1c1" d="M 251.5,420.5 C 247.833,420.5 244.167,420.5 240.5,420.5C 240.5,428.167 240.5,435.833 240.5,443.5C 244.5,443.5 248.5,443.5 252.5,443.5C 248.366,444.485 244.032,444.818 239.5,444.5C 239.5,436.167 239.5,427.833 239.5,419.5C 243.702,419.183 247.702,419.517 251.5,420.5 Z"/></g>
</svg>
